<svg xmlns="http://www.w3.org/2000/svg" viewBox="0 0 150 150">
  <title>logo</title>
  <path style="fill: #46494C" d="M75,0a75,75,0,1,0,75,75A75,75,0,0,0,75,0Zm58.384,57.341a60.578,60.578,0,0,1,2.049,9.457,6.18,6.18,0,0,0-.535-.748l-.086-.1c-1.143-1.237-2.047-2.208-2.727-2.929C132.593,60.845,133.019,58.975,133.384,57.341ZM75,14a60.878,60.878,0,0,1,46.517,21.6,9.919,9.919,0,0,0-2.384,4.643A51.374,51.374,0,0,0,117,53.406a17.492,17.492,0,0,0,2.713,10.076c-1.45,8.048-4.511,17.452-9.109,27.981-4.241,9.761-8.376,17.458-12.294,22.881-1.767,2.448-3.54,3.65-5.43,3.677-.915.035-2.229-.251-3.842-2.709a18.233,18.233,0,0,1-2.587-9.022c-.079-1.586-.119-3.253-.119-4.957,0-11.8,2.722-26.736,8.09-44.4l3.849-4.074a7.116,7.116,0,0,0,2.272-4.742c0-3.674-4.268-5.5-8.875-6.925a9.053,9.053,0,0,0-2.676-.443c-1.625,0-4.638.648-6.565,5A74.784,74.784,0,0,0,79.894,54.1c-1.332,1.469-4.473,5.3-13.223,16.8q-3.9,5.1-7.124,9.4.594-2.194,1.214-4.551c2.521-9.706,3.915-16.028,4.265-19.35.289-2.949.322-3.967.322-4.475a11.548,11.548,0,0,0-5.091-9.548c-3.827-2.833-6.522-4.1-8.737-4.1a5,5,0,0,0-4.762,3.321l-.255.751c-1.8.761-5.336,2.072-12.282,4.321a112.5,112.5,0,0,0-16.115,6.359A61.09,61.09,0,0,1,75,14ZM14,75c0-.334.02-.662.025-1,.688.907,1.45,1.882,2.309,2.944a5.7,5.7,0,0,0,4.486,2.405,3.913,3.913,0,0,0,4.046-4.045,5.239,5.239,0,0,0-.583-2.3,10.052,10.052,0,0,1-.955-3.85,3.649,3.649,0,0,1,1.8-3.221,105.531,105.531,0,0,1,14-7.591A98.243,98.243,0,0,1,50.4,53.855c-.246,6.556-2.352,17.106-6.267,31.4-3.8,13.865-7.62,25.166-11.381,33.689A60.814,60.814,0,0,1,14,75Zm61,61a60.618,60.618,0,0,1-32.291-9.283l.226-.111a13.534,13.534,0,0,0,5.411-4.275c.728-1.077,2.115-3.487,5.753-11.955,2.365-5.6,6.75-12.92,13.034-21.766q3.632-5.121,6.991-9.407a136.273,136.273,0,0,0-2.287,24.406c0,1.835.066,3.573.189,5.084.334,6.159,2.493,10.868,6.391,13.976,2.516,2.051,6.685,3.92,12.738,5.71a14.985,14.985,0,0,0,6.507,1.609,8.526,8.526,0,0,0,6.561-2.8c9.753-11.106,18.217-29.04,25.185-53.346a4.16,4.16,0,0,0,2.338.718,4.332,4.332,0,0,0,4.17-2.753Q136,73.392,136,75A61.069,61.069,0,0,1,75,136Z"/>
</svg>
